<svg xmlns="http://www.w3.org/2000/svg" viewBox="0 0 247.67 248.51"><defs><style>.cls-1{fill:#616160;}</style></defs><title>Asset 3</title><g id="Layer_2" data-name="Layer 2"><g id="Laag_1" data-name="Laag 1"><g id="Laag_2" data-name="Laag 2"><g id="Laag_2-2" data-name="Laag 2-2"><path class="cls-1" d="M209.3,39.8V73.2H189.8s-9.4-.2-13.1,2.7S171,84.3,171,88.5v26.6h38.3L203.7,152H171v96.1h61.3s9.2.6,12.9-5.3c2.8-4.5,2.4-10.8,2.4-17.7V17.5s.8-8.3-2.9-12.4C241.6,1.7,238.5,0,232.2,0H15.6S7.2-.1,3.7,4.2.4,11.4.2,17.4C.1,23.1,0,234.2,0,234.2a14.56,14.56,0,0,0,2.6,8.3c2.8,4.2,6.7,5,12.3,5.7s117.8,0,117.8,0l.7-96.9H100.6V114.8h32.8V82.3s.4-18.5,9.9-29.1c10.8-12,16.4-12.4,27.2-14.1C183.5,37.1,209.3,39.8,209.3,39.8Z"/></g></g></g></g></svg>