<?xml version="1.0" encoding="utf-8"?>
<!-- Generator: Adobe Illustrator 22.0.0, SVG Export Plug-In . SVG Version: 6.00 Build 0)  -->
<svg version="1.1" id="Layer_1" xmlns="http://www.w3.org/2000/svg" xmlns:xlink="http://www.w3.org/1999/xlink" x="0px" y="0px"
	 viewBox="0 0 247.7 248.5" style="enable-background:new 0 0 247.7 248.5;" xml:space="preserve">
<style type="text/css">
	.st0{fill:#383838;}
</style>
<title>Asset 3</title>
<g id="Laag_2-2">
	<g id="XMLID_1_">
		<g>
			<path class="st0" d="M244.7,5.1c3.7,4.1,2.9,12.4,2.9,12.4v207.6c0,6.9,0.4,13.2-2.4,17.7c-3.7,5.9-12.9,5.3-12.9,5.3H171V152
				h32.7l5.6-36.9H171V88.5c0-4.2,2-9.7,5.7-12.6s13.1-2.7,13.1-2.7h19.5V39.8c0,0-25.8-2.7-38.8-0.7c-10.8,1.7-16.4,2.1-27.2,14.1
				c-9.5,10.6-9.9,29.1-9.9,29.1v32.5h-32.8v36.5h32.8l-0.7,96.9c0,0-112.2,0.7-117.8,0s-9.5-1.5-12.3-5.7c-1.7-2.4-2.6-5.3-2.6-8.3
				c0,0,0.1-211.1,0.2-216.8c0.2-6,0-8.9,3.5-13.2S15.6,0,15.6,0h216.6C238.5,0,241.6,1.7,244.7,5.1z"/>
		</g>
	</g>
</g>
</svg>
