<svg xmlns="http://www.w3.org/2000/svg" viewBox="0 0 247.75 248.45"><defs><style>.cls-1{fill:#616160;}</style></defs><title>Asset 1</title><g id="Layer_2" data-name="Layer 2"><g id="Laag_1" data-name="Laag 1"><g id="Laag_2" data-name="Laag 2"><g id="Laag_2-2" data-name="Laag 2-2"><path class="cls-1" d="M133.3,92.5A33.86,33.86,0,0,0,101,150a17.41,17.41,0,0,0,1.4,1.2,33.89,33.89,0,0,0,43.1-52.3,33.32,33.32,0,0,0-12.2-6.4Zm0,0A33.86,33.86,0,0,0,101,150a17.41,17.41,0,0,0,1.4,1.2,33.89,33.89,0,0,0,43.1-52.3,33.32,33.32,0,0,0-12.2-6.4Zm0,0A33.86,33.86,0,0,0,101,150a17.41,17.41,0,0,0,1.4,1.2,33.89,33.89,0,0,0,43.1-52.3,33.32,33.32,0,0,0-12.2-6.4Zm0,0A33.86,33.86,0,0,0,101,150a17.41,17.41,0,0,0,1.4,1.2,33.89,33.89,0,0,0,43.1-52.3,33.32,33.32,0,0,0-12.2-6.4ZM244.7,5.1c-3-3.4-6.2-5.1-12.5-5.1H15.5S7.1-.1,3.7,4.2.4,11.4.2,17.4C0,23,0,234.1,0,234.1a14.56,14.56,0,0,0,2.6,8.3c2.8,4.2,6.7,5,12.3,5.7,1.4.2,9.5.2,21,.3H36c13.7.2,135-.3,135-.3h61.3s9.2.6,12.9-5.3c2.8-4.5,2.5-10.8,2.5-17.7V17.5S248.4,9.2,244.7,5.1Zm-19.1,127c0,5.6,0,11.2-.1,16.8v3.5c0,5.6-.3,11.2-.6,16.8a72.11,72.11,0,0,1-4.3,21.6q-9.45,24.3-34.4,32.1c-.6.2-1.1.3-1.7.5a68.11,68.11,0,0,1-11.8,2.2l-1.7.2c-5.3.5-10.6.7-15.9.7-7.4,0-14.8.1-22.2.1H103.7c-5.9,0-11.8-.2-17.8-.4A128.09,128.09,0,0,1,72,225.1a60,60,0,0,1-23-7.9,51.66,51.66,0,0,1-21.4-25.8,72.25,72.25,0,0,1-4.1-17.7c-.6-5.9-.8-11.8-.9-17.7-.2-10.4-.2-20.7-.3-31h.2c0-9-.1-18,0-27.1q.15-8.55.6-17.1a70.72,70.72,0,0,1,3.7-19.9,52,52,0,0,1,34-33.4,72.48,72.48,0,0,1,12.9-2.8A118.83,118.83,0,0,1,87,23.8c18.2-.7,36.4-.4,54.6-.4,5.9,0,11.8.1,17.6.3a141.27,141.27,0,0,1,14.6.9c8.3,1,16.4,3.1,23.7,7.3a50.82,50.82,0,0,1,22.9,26.7,68,68,0,0,1,4.1,17.7c.6,5.8.8,11.7.9,17.6.2,12.7.2,25.5.2,38.2Zm-18.3-7c0-3.4,0-6.7-.1-10.1,0-4.4,0-8.8-.1-13.2,0-2.2,0-4.3-.1-6.5a171.42,171.42,0,0,0-.9-17.6,48.1,48.1,0,0,0-2.7-11.8,33.07,33.07,0,0,0-16.6-18.8,42,42,0,0,0-16.2-4.3c-4.2-.4-8.4-.6-12.6-.7-7.7-.2-15.4-.3-23.2-.3H102.7c-8.1,0-16.2.2-24.3.8a50.11,50.11,0,0,0-14.3,3.1,32.59,32.59,0,0,0-19,18.1,50.54,50.54,0,0,0-3.9,18c-.3,6-.6,11.9-.6,17.9-.1,18.4,0,36.8.1,55.2v2.2a131.27,131.27,0,0,0,.9,15.4,50,50,0,0,0,2.7,11.9,32.41,32.41,0,0,0,13.9,17.2c5,3.2,10.7,4.7,16.5,5.6q6,.75,12,.9c6.8.2,13.6.3,20.4.4,8.5.1,17.1.1,25.7,0h.4c11.1,0,22.2,0,33.4-.7,1.4-.1,2.9-.2,4.3-.4a54.94,54.94,0,0,0,9-1.7c11.8-3.4,19.9-10.8,23.9-22.5a53.68,53.68,0,0,0,2.7-14.9c.3-6.1.5-12.3.6-18.4.1-7.1,0-14.2,0-21.3V125Zm-74.2,51.4A52.22,52.22,0,1,1,114.7,73.7a57.16,57.16,0,0,1,9.2-.8c1,0,2.1,0,3.1.1a52.28,52.28,0,0,1,43.9,29.4,51.2,51.2,0,0,1,4.2,12.7,52.24,52.24,0,0,1-41.3,61.3,1.7,1.7,0,0,0-.7.1Zm45-93.5a12.2,12.2,0,1,1,12.2-12.2h0A12.18,12.18,0,0,1,178.1,83Zm-44.8,9.5A33.9,33.9,0,0,0,101,150a17.41,17.41,0,0,0,1.4,1.2,33.89,33.89,0,0,0,43.1-52.3,33.32,33.32,0,0,0-12.2-6.4Zm0,0A33.9,33.9,0,0,0,101,150a17.41,17.41,0,0,0,1.4,1.2,33.89,33.89,0,0,0,43.1-52.3,33.32,33.32,0,0,0-12.2-6.4Zm0,0A33.9,33.9,0,0,0,101,150a17.41,17.41,0,0,0,1.4,1.2,33.89,33.89,0,0,0,43.1-52.3,33.32,33.32,0,0,0-12.2-6.4Zm0,0A33.9,33.9,0,0,0,101,150a17.41,17.41,0,0,0,1.4,1.2,33.89,33.89,0,0,0,43.1-52.3,33.32,33.32,0,0,0-12.2-6.4Z"/></g></g></g></g></svg>