<?xml version="1.0" encoding="utf-8"?>
<!-- Generator: Adobe Illustrator 22.0.0, SVG Export Plug-In . SVG Version: 6.00 Build 0)  -->
<svg version="1.1" id="Layer_1" xmlns="http://www.w3.org/2000/svg" xmlns:xlink="http://www.w3.org/1999/xlink" x="0px" y="0px"
	 viewBox="0 0 247.8 248.4" style="enable-background:new 0 0 247.8 248.4;" xml:space="preserve">
<style type="text/css">
	.st0{fill:#383838;}
</style>
<title>Asset 1</title>
<g id="Laag_2-2">
	<g id="XMLID_1_">
		<g>
			<path class="st0" d="M244.7,5.1c3.7,4.1,3,12.4,3,12.4v207.6c0,6.9,0.3,13.2-2.5,17.7c-3.7,5.9-12.9,5.3-12.9,5.3H171
				c0,0-121.3,0.5-135,0.3h-0.1c-11.5-0.1-19.6-0.1-21-0.3c-5.6-0.7-9.5-1.5-12.3-5.7C0.9,240,0,237.1,0,234.1
				c0,0,0-211.1,0.2-216.7c0.2-6,0.1-8.9,3.5-13.2S15.5,0,15.5,0h216.7C238.5,0,241.7,1.7,244.7,5.1z M225.5,148.9
				c0.1-5.6,0.1-11.2,0.1-16.8c0-12.7,0-25.5-0.2-38.2c-0.1-5.9-0.3-11.8-0.9-17.6c-0.6-6.1-1.9-12-4.1-17.7
				c-4.2-11.3-12.3-20.8-22.9-26.7c-7.3-4.2-15.4-6.3-23.7-7.3c-4.9-0.6-9.7-0.9-14.6-0.9c-5.8-0.2-11.7-0.3-17.6-0.3
				c-18.2,0-36.4-0.3-54.6,0.4c-4.4,0.1-8.9,0.4-13.3,0.9s-8.7,1.5-12.9,2.8c-16.1,5-28.7,17.4-34,33.4c-2.2,6.4-3.4,13.1-3.7,19.9
				c-0.3,5.7-0.5,11.4-0.6,17.1c-0.1,9.1,0,18.1,0,27.1h-0.2c0.1,10.3,0.1,20.6,0.3,31c0.1,5.9,0.3,11.8,0.9,17.7
				c0.6,6.1,2,12,4.1,17.7c4.1,10.7,11.6,19.8,21.4,25.8c7,4.2,14.9,6.9,23,7.9c4.6,0.6,9.3,1,13.9,1.1c6,0.2,11.9,0.4,17.8,0.4
				h29.2c7.4,0,14.8-0.1,22.2-0.1c5.3,0,10.6-0.2,15.9-0.7l1.7-0.2c4-0.4,7.9-1.1,11.8-2.2c0.6-0.2,1.1-0.3,1.7-0.5
				c16.6-5.2,28.1-15.9,34.4-32.1c2.5-6.9,4-14.2,4.3-21.6c0.3-5.6,0.6-11.2,0.6-16.8L225.5,148.9L225.5,148.9z"/>
			<path class="st0" d="M207.3,125.1l-0.2-0.1v3.6c0,7.1,0.1,14.2,0,21.3c-0.1,6.1-0.3,12.3-0.6,18.4c-0.2,5.1-1.1,10.1-2.7,14.9
				c-4,11.7-12.1,19.1-23.9,22.5c-2.9,0.8-6,1.4-9,1.7c-1.4,0.2-2.9,0.3-4.3,0.4c-11.2,0.7-22.3,0.7-33.4,0.7h-0.4
				c-8.6,0.1-17.2,0.1-25.7,0c-6.8-0.1-13.6-0.2-20.4-0.4c-4-0.1-8-0.4-12-0.9c-5.8-0.9-11.5-2.4-16.5-5.6
				c-6.5-3.9-11.4-10-13.9-17.2c-1.4-3.8-2.3-7.8-2.7-11.9c-0.6-5.1-0.9-10.3-0.9-15.4v-2.2c-0.1-18.4-0.2-36.8-0.1-55.2
				c0-6,0.3-11.9,0.6-17.9c0.2-6.2,1.5-12.3,3.9-18c3.5-8.4,10.4-15,19-18.1c4.6-1.7,9.4-2.8,14.3-3.1c8.1-0.6,16.2-0.8,24.3-0.8
				h32.1c7.8,0,15.5,0.1,23.2,0.3c4.2,0.1,8.4,0.3,12.6,0.7c5.6,0.3,11.1,1.8,16.2,4.3c7.8,3.8,13.8,10.6,16.6,18.8
				c1.4,3.8,2.3,7.8,2.7,11.8c0.6,5.9,0.9,11.7,0.9,17.6c0.1,2.2,0.1,4.3,0.1,6.5c0.1,4.4,0.1,8.8,0.1,13.2
				C207.3,118.4,207.3,121.7,207.3,125.1z M190.3,70.8L190.3,70.8c0-6.8-5.5-12.2-12.2-12.2s-12.2,5.5-12.2,12.2S171.4,83,178.1,83
				l0,0C184.9,83,190.3,77.5,190.3,70.8z M133.9,176.4c28.3-5.5,46.8-33,41.3-61.3c-0.8-4.4-2.3-8.7-4.2-12.7
				c-8.2-17-25-28.3-43.9-29.4c-1-0.1-2.1-0.1-3.1-0.1c-3.1,0-6.2,0.3-9.2,0.8c-0.4,0.1-0.8,0.1-1.1,0.2
				C85.2,79.3,66.6,106.6,72,135c5.4,28.3,32.7,46.9,61.1,41.5C133.3,176.4,133.6,176.4,133.9,176.4
				C133.8,176.4,133.8,176.4,133.9,176.4z"/>
			<path class="st0" d="M145.5,98.9c13.9,11.9,15.9,32.6,4.5,46.9c-11.7,14.6-33,17-47.6,5.4c-0.5-0.4-1-0.8-1.4-1.2
				c-0.2-0.2-0.4-0.4-0.7-0.6c-8.9-8.7-12.4-21.6-8.9-33.6c5-17.6,23.1-28,40.7-23.6c0.4,0.1,0.8,0.2,1.2,0.3
				C137.8,93.8,141.9,95.9,145.5,98.9z"/>
			<path class="st0" d="M100.3,149.4c-9-8.7-12.5-21.7-9-33.8c5.1-17.6,23.2-27.8,40.8-23.4c-17.6-4.3-35.7,6-40.7,23.6
				C88,127.8,91.4,140.7,100.3,149.4z"/>
		</g>
	</g>
</g>
</svg>
