<?xml version="1.0" encoding="utf-8"?>
<!-- Generator: Adobe Illustrator 22.0.0, SVG Export Plug-In . SVG Version: 6.00 Build 0)  -->
<svg version="1.1" xmlns="http://www.w3.org/2000/svg" xmlns:xlink="http://www.w3.org/1999/xlink" x="0px" y="0px"
	 viewBox="0 0 248.8 248.5" style="enable-background:new 0 0 248.8 248.5;" xml:space="preserve">
<style type="text/css">
	.st0{fill:#383838;}
</style>
<g id="Layer_2">
	<path class="st0" d="M236.5,0.1H12.3c-6.6,0-12,5.4-12,12v224.2c0,6.6,5.4,12,12,12h224.2c6.6,0,12-5.4,12-12V12.1
		C248.5,5.5,243.1,0.1,236.5,0.1z M70.7,217.5H32.3V90.6h38.5V217.5z M51.9,71.8c-11.7,0-21.3-9.6-21.3-21.3
		c0-11.7,9.5-21.2,21.4-21.1c11.7,0,21.1,9.5,21.2,21.1C73.2,62.3,63.7,71.8,51.9,71.8z M223,214.8v2.8h-37.7v-2.4
		c0-21.4,0-42.8,0-64.2c0-3.1-0.3-6.3-0.8-9.3c-1.5-8.3-6.1-12.9-14.7-13.9c-5.3-0.6-10.7-0.3-16,0.5c-6.6,1-9.9,5.4-11,13
		c-0.3,2.5-0.5,5-0.5,7.5c0,22,0,44.1,0,66.1v2.8h-38.7V90.6h36.9v20.2c3.5-2.9,6.5-5.7,9.7-8.1c16.2-12.2,34-13.5,52.4-6.5
		c12.6,4.8,18.7,15.1,20,28.3c0.3,3,0.4,6.1,0.4,9.2C223,160.6,223,187.7,223,214.8z"/>
</g>
<g id="Layer_1">
	<title>Asset 1</title>
</g>
</svg>
