<svg xmlns="http://www.w3.org/2000/svg" viewBox="0 0 248.8 248.5"><defs><style>.cls-1{fill:#626260;}</style></defs><title>Asset 2</title><g id="Layer_2" data-name="Layer 2"><g id="Laag_1" data-name="Laag 1"><g id="Laag_2" data-name="Laag 2"><g id="Laag_2-2" data-name="Laag 2-2"><path class="cls-1" d="M78.3,211.8v36.5H15S7.6,246,3.8,241.9A13.87,13.87,0,0,1,0,233V17.4A19,19,0,0,1,4.4,6C9.6-.4,18.4.1,18.4.1H36.8V43.9a22.39,22.39,0,0,0,0,23.4L37,92.5V211.9H78.3Z"/><path class="cls-1" d="M75.3,67.4,75,93.5H36.8V67.2a22.52,22.52,0,0,0,31,7.6,22.12,22.12,0,0,0,7.5-7.4Z"/><path class="cls-1" d="M97.4,0V248.4H73.5l.2-36.6.6-118.4L74.9,68a25.8,25.8,0,0,0,3.8-12.5,22.45,22.45,0,0,0-3.5-12.1l-.4-.6a17.19,17.19,0,0,0-3.6-4l-.1-.1a22.6,22.6,0,0,0-31.9,1.6,23.39,23.39,0,0,0-2.9,4.1L35.2,0Z"/><path class="cls-1" d="M93.9,0H232.7s6.8.4,10.5,4.4,4.8,7.1,5.2,9.4.4,217.9.4,217.9-.4,7.2-4,10.7-8.2,6.1-9.8,6.1H212.4l.1-111.8s.3-21.7-10.5-33.5c-9.7-10.7-18.3-12.8-30.2-12.9s-25.8.4-38.8,18.9l-.4-15.8H95.4Z"/><path class="cls-1" d="M93.9,248.4V211.3h39.8V145.6s-.9-22.1,21.4-22.1c21.6,0,20.1,22.1,20.1,22.1l.1,66.4,40.4-.4v36.8Z"/></g></g></g></g></svg>