<?xml version="1.0" encoding="utf-8"?>
<!-- Generator: Adobe Illustrator 22.0.0, SVG Export Plug-In . SVG Version: 6.00 Build 0)  -->
<svg version="1.1" id="Layer_1" xmlns="http://www.w3.org/2000/svg" xmlns:xlink="http://www.w3.org/1999/xlink" x="0px" y="0px"
	 viewBox="0 0 248.8 248.5" style="enable-background:new 0 0 248.8 248.5;" xml:space="preserve">
<style type="text/css">
	.st0{fill:#6F9771;}
</style>
<title>Asset 2</title>
<g id="Laag_2-2">
	<g id="XMLID_1_">
		<g>
			<path class="st0" d="M248.4,13.8c0.4,2.3,0.4,217.9,0.4,217.9s-0.4,7.2-4,10.7c-3.6,3.5-8.2,6.1-9.8,6.1h-22.6v-0.1h3.3v-36.8
				l-3.3,0l0.1-74.9c0,0,0.3-21.7-10.5-33.5c-9.7-10.7-18.3-12.8-30.2-12.9c-11.9-0.1-25.8,0.4-38.8,18.9l-0.4-15.8H97.4V0h135.3
				c0,0,6.8,0.4,10.5,4.4S248,11.5,248.4,13.8z"/>
			<polygon class="st0" points="215.7,211.6 215.7,248.4 212.4,248.4 212.4,211.6 			"/>
			<path class="st0" d="M212.4,211.6l0,36.8h-115v-37.1h36.3v-65.7c0,0-0.9-22.1,21.4-22.1c21.6,0,20.1,22.1,20.1,22.1l0.1,66.4
				L212.4,211.6z"/>
			<rect x="93.9" y="211.3" class="st0" width="3.5" height="37.1"/>
			<path class="st0" d="M78.3,211.9h-4.6v-0.1l0.6-118.3H75l0.3-26.1c-0.1,0.2-0.3,0.4-0.4,0.6c2.3-3.8,3.6-8.1,3.8-12.5
				c0-4.3-1.2-8.5-3.5-12.1l-0.4-0.6c-1-1.5-2.2-2.9-3.6-4l-0.1-0.1c-9.3-8.4-23.5-7.6-31.9,1.6c-0.9,1-1.7,2.1-2.4,3.3V0.1h-1.6V0
				h58.7l1.5,93.4h2v117.9h-3.5v37.1H73.5v-0.1h4.8V211.9z"/>
			<polygon class="st0" points="97.4,0 97.4,93.4 95.4,93.4 93.9,0 			"/>
			<polygon class="st0" points="78.3,211.9 78.3,248.3 73.5,248.3 73.7,211.9 			"/>
			<path class="st0" d="M75.3,67.4L75,93.5h-0.7v-0.1L74.9,68v0C75.1,67.8,75.2,67.6,75.3,67.4z"/>
			<path class="st0" d="M74.9,68l-0.6,25.4v0.1H37v-1l-0.2-25.2v-0.1c6.4,10.7,20.3,14.1,30.9,7.7c0,0,0,0,0.1,0
				C70.7,73.1,73.1,70.8,74.9,68z"/>
			<path class="st0" d="M73.7,211.9l-0.2,36.4H15c0,0-7.4-2.3-11.2-6.4c-2.3-2.4-3.6-5.6-3.8-8.9V17.4C0.2,13.2,1.7,9.2,4.4,6
				c5.2-6.4,14-5.9,14-5.9h16.8l1.1,44.3c0.2-0.3,0.3-0.6,0.5-0.8v0.3c-4.4,7.2-4.4,16.2,0,23.4v26.2H37v118.4H73.7z"/>
			<polygon class="st0" points="37,92.5 37,93.5 36.8,93.5 36.8,67.3 			"/>
			<path class="st0" d="M36.8,0.1v43.5c-0.2,0.3-0.3,0.6-0.5,0.8L35.2,0.1H36.8z"/>
		</g>
		<g>
		</g>
	</g>
</g>
</svg>
